ply
format ascii 1.0
comment Created by CloudCompare v2.11.3 (Anoia)
comment Created 14/07/2022 13:31
obj_info Generated by CloudCompare!
element vertex 9
property float x
property float y
property float z
property float nx
property float ny
property float nz
end_header
1.21778 -0.198819 -1.33552 -0.139214 -0.52022 0.84261 
1.76246 0.47069 -0.830459 -0.139214 -0.52022 0.84261 
2.30713 1.1402 -0.325398 -0.139214 -0.52022 0.84261 
2.04447 -0.728794 -1.52451 -0.139214 -0.52022 0.84261 
2.58914 -0.0592839 -1.01945 -0.139214 -0.52022 0.84261 
3.13382 0.610226 -0.514388 -0.139214 -0.52022 0.84261 
0.391098 0.331155 -1.14653 -0.139214 -0.52022 0.84261 
0.935772 1.00066 -0.641468 -0.139214 -0.52022 0.84261
1.62132 -0.0497752 0.0116787 -0.139214 -0.52022 0.84261 
