ply
format ascii 1.0
comment Created by CloudCompare v2.11.3 (Anoia)
comment Created 14/07/2022 13:16
obj_info Generated by CloudCompare!
element vertex 5
property float x
property float y
property float z
property float nx
property float ny
property float nz
end_header
-3.24085 -1.35707 -0.768334 0.000977516 0.000977516 0.999999 
-2.24085 -0.357071 -0.768334 0.000977516 0.000977516 0.999999 
-4.24085 -0.357071 -0.768334 0.000977516 0.000977516 0.999999 
-2.24085 -2.35707 -0.768334 0.000977516 0.000977516 0.999999 
-4.24085 -2.35707 -0.768334 0.000977516 0.000977516 0.999999 
