ply
format ascii 1.0
element vertex 9
property float x
property float y
property float z
property float nx
property float ny
property float nz
end_header
-0.563949 -0.175946 -1.00145 -3.32112e-10 -8.09404e-10 1
-0.000315843 -1.00197 -0.999998 -3.32112e-10 -8.09404e-10 1
0.563322 -1.82799 -0.998547 -3.32112e-10 -8.09404e-10 1
-1.38997 -0.739585 -1.00008 -3.32112e-10 -8.09404e-10 1
-0.826336 -1.5656 -0.998626 -3.32112e-10 -8.09404e-10 1
-0.262702 -2.39163 -0.997176 -3.32112e-10 -8.09404e-10 1
0.262072 0.387685 -1.00282 -3.32112e-10 -8.09404e-10 1
0.825705 -0.438336 -1.00137 -3.32112e-10 -8.09404e-10 1
-5.55112e-16 -1 -1.11022e-16 -3.32112e-10 -8.09404e-10 1
