ply
format ascii 1.0
element vertex 9
property float x
property float y
property float z
property float nx
property float ny
property float nz
end_header
-0.390548 -0.209006 -1.00145 -8.72417e-10 6.5738e-11 1
-1.00197 -1.00031 -0.999998 -8.72417e-10 6.5738e-11 1
-1.61339 -1.79161 -0.998547 -8.72417e-10 6.5738e-11 1
-1.18186 0.402417 -1.00008 -8.72417e-10 6.5738e-11 1
-1.79327 -0.388888 -0.998626 -8.72417e-10 6.5738e-11 1
-2.4047 -1.18019 -0.997176 -8.72417e-10 6.5738e-11 1
0.400751 -0.820427 -1.00282 -8.72417e-10 6.5738e-11 1
-0.210669 -1.61173 -1.00137 -8.72417e-10 6.5738e-11 1
-1 -1 0 -8.72417e-10 6.5738e-11 1
