ply
format ascii 1.0
element vertex 10
property float x
property float y
property float z
property float nx
property float ny
property float nz
end_header
-0.000582194 -1.02968 1.01442e-07 0.0014133 0.00141007 0.999998
0.028957 -0.0301095 -6.90342e-07 0.0014133 0.00141007 0.999998
0.0584874 0.969452 -6.30373e-07 0.0014133 0.00141007 0.999998
0.998985 -1.05921 9.42896e-07 0.0014133 0.00141007 0.999998
1.02852 -0.0596467 2.21649e-07 0.0014133 0.00141007 0.999998
1.05805 0.939921 -2.85791e-07 0.0014133 0.00141007 0.999998
-1.00014 -1.00014 -1.36804e-06 0.0014133 0.00141007 0.999998
-0.970606 -0.000579129 1.65622e-06 0.0014133 0.00141007 0.999998
-0.941069 0.998987 5.84778e-07 0.0014133 0.00141007 0.999998
0.0289551 -0.03011 1 0.0014133 0.00141007 0.999998
