ply
format ascii 1.0
element vertex 9
property float x
property float y
property float z
property float nx
property float ny
property float nz
end_header
-0.000597794 -1.02969 7.63268e-08 0.00141341 0.00140995 0.999998
0.0289414 -0.030125 -6.01666e-07 0.00141341 0.00140995 0.999998
0.0584718 0.969437 -4.27905e-07 0.00141341 0.00140995 0.999998
0.99897 -1.05922 8.02281e-07 0.00141341 0.00140995 0.999998
1.0285 -0.0596623 1.94826e-07 0.00141341 0.00140995 0.999998
1.05804 0.939905 -1.98823e-07 0.00141341 0.00140995 0.999998
-1.00016 -1.00016 -1.27765e-06 0.00141341 0.00140995 0.999998
-0.970622 -0.000594671 1.86039e-06 0.00141341 0.00140995 0.999998
0.0289396 -0.0301256 1 0.00141341 0.00140995 0.999998
