ply
format ascii 1.0
comment Created by CloudCompare v2.11.3 (Anoia)
comment Created 24/04/2022 17:22
obj_info Generated by CloudCompare!
element vertex 508
property float x
property float y
property float z
property float nx
property float ny
property float nz
end_header
-1.09864 -4.85815 3.74201 -0.33503 -0.273042 0.901778 
-1.68253 -5.1657 3.43094 -0.33503 -0.273042 0.901778 
-1.23462 -5.04189 3.63537 -0.33503 -0.273042 0.901778 
-1.05952 -5.13245 3.6729 -0.33503 -0.273042 0.901778 
-0.958137 -5.33045 3.65023 -0.33503 -0.273042 0.901778 
-0.99689 -4.77215 3.80611 -0.33503 -0.273042 0.901778 
-1.35191 -4.91803 3.62951 -0.33503 -0.273042 0.901778 
-0.90207 -5.0438 3.75853 -0.33503 -0.273042 0.901778 
-0.867997 -4.68744 3.87991 -0.33503 -0.273042 0.901778 
-0.905975 -4.83876 3.81962 -0.33503 -0.273042 0.901778 
-1.17736 -4.95955 3.68179 -0.33503 -0.273042 0.901778 
-1.38361 -5.01491 3.58816 -0.33503 -0.273042 0.901778 
-1.53232 -5.13025 3.49764 -0.33503 -0.273042 0.901778 
-1.01333 -4.93991 3.74882 -0.33503 -0.273042 0.901778 
-1.40768 -5.27121 3.50103 -0.33503 -0.273042 0.901778 
-1.09776 -5.30504 3.60603 -0.33503 -0.273042 0.901778 
-1.21141 -5.34688 3.55098 -0.33503 -0.273042 0.901778 
-1.40015 -5.10755 3.55375 -0.33503 -0.273042 0.901778 
-1.53162 -5.02134 3.53112 -0.33503 -0.273042 0.901778 
-1.72442 -5.06857 3.44498 -0.33503 -0.273042 0.901778 
-1.29397 -5.19635 3.56617 -0.33503 -0.273042 0.901778 
-1.48113 -4.94154 3.57425 -0.33503 -0.273042 0.901778 
-1.58561 -5.23445 3.44603 -0.33503 -0.273042 0.901778 
-1.62783 -5.03906 3.48992 -0.33503 -0.273042 0.901778 
-1.15021 -5.21471 3.61406 -0.33503 -0.273042 0.901778 
-0.9515 -5.22046 3.68625 -0.33503 -0.273042 0.901778 
-1.1244 -4.76326 3.76137 -0.33503 -0.273042 0.901778 
-1.24124 -4.8702 3.68528 -0.33503 -0.273042 0.901778 
-1.77641 -5.17265 3.39388 -0.33503 -0.273042 0.901778 
-0.794262 -4.60486 3.93253 -0.33503 -0.273042 0.901778 
-0.967342 -5.11414 3.71279 -0.33503 -0.273042 0.901778 
-0.992895 -4.66839 3.83924 -0.33503 -0.273042 0.901778 
-1.11356 -5.04662 3.67897 -0.33503 -0.273042 0.901778 
-1.12404 -5.39623 3.56843 -0.33503 -0.273042 0.901778 
-1.31564 -5.32792 3.51798 -0.33503 -0.273042 0.901778 
-0.992403 -5.42439 3.60882 -0.33503 -0.273042 0.901778 
-1.42625 -4.78269 3.64313 -0.33503 -0.273042 0.901778 
-1.15865 -4.44371 3.8461 -0.33503 -0.273042 0.901778 
-0.962993 -4.47984 3.90788 -0.33503 -0.273042 0.901778 
-1.49744 -4.67148 3.65056 -0.33503 -0.273042 0.901778 
-1.75357 -4.52587 3.59967 -0.33503 -0.273042 0.901778 
-1.57453 -4.60244 3.64294 -0.33503 -0.273042 0.901778 
-1.64821 -4.86148 3.5365 -0.33503 -0.273042 0.901778 
-1.31728 -4.57907 3.74578 -0.33503 -0.273042 0.901778 
-1.10272 -4.57509 3.82684 -0.33503 -0.273042 0.901778 
-1.58636 -4.75691 3.59141 -0.33503 -0.273042 0.901778 
-1.43297 -4.40613 3.75549 -0.33503 -0.273042 0.901778 
-1.26534 -4.69627 3.72936 -0.33503 -0.273042 0.901778 
-1.3708 -4.66806 3.69873 -0.33503 -0.273042 0.901778 
-1.67001 -4.36766 3.67902 -0.33503 -0.273042 0.901778 
-1.70482 -4.67309 3.57291 -0.33503 -0.273042 0.901778 
-1.81936 -4.82987 3.48246 -0.33503 -0.273042 0.901778 
-1.87789 -5.12208 3.37155 -0.33503 -0.273042 0.901778 
-1.14158 -4.65929 3.7867 -0.33503 -0.273042 0.901778 
-1.86235 -5.0092 3.41176 -0.33503 -0.273042 0.901778 
-0.959696 -4.57905 3.87885 -0.33503 -0.273042 0.901778 
-1.55803 -4.48148 3.68597 -0.33503 -0.273042 0.901778 
-1.28382 -4.42505 3.80522 -0.33503 -0.273042 0.901778 
-1.43443 -4.50467 3.72489 -0.33503 -0.273042 0.901778 
-1.20258 -4.5397 3.80047 -0.33503 -0.273042 0.901778 
-1.57078 -4.38338 3.71115 -0.33503 -0.273042 0.901778 
-1.76814 -4.9405 3.46777 -0.33503 -0.273042 0.901778 
-1.31642 -4.78615 3.68294 -0.33503 -0.273042 0.901778 
-1.65427 -4.27218 3.714 -0.33503 -0.273042 0.901778 
-1.66225 -4.50251 3.64078 -0.33503 -0.273042 0.901778 
-1.77818 -4.73038 3.52813 -0.33503 -0.273042 0.901778 
-1.55054 -4.2889 3.7475 -0.33503 -0.273042 0.901778 
-0.844782 -4.5174 3.94041 -0.33503 -0.273042 0.901778 
-0.937704 -5.40896 3.48359 -0.195583 -0.915099 -0.35262 
-0.881629 -5.35345 3.30807 -0.195583 -0.915099 -0.35262 
-1.06469 -5.35049 3.40157 -0.195583 -0.915099 -0.35262 
-1.05657 -5.22495 3.07019 -0.195583 -0.915099 -0.35262 
-1.02173 -5.11864 2.77411 -0.195583 -0.915099 -0.35262 
-1.16793 -5.0552 2.68975 -0.195583 -0.915099 -0.35262 
-1.33429 -4.98884 2.60892 -0.195583 -0.915099 -0.35262 
-0.927004 -5.11612 2.71517 -0.195583 -0.915099 -0.35262 
-1.13245 -5.26672 3.22091 -0.195583 -0.915099 -0.35262 
-1.34549 -5.05765 2.79429 -0.195583 -0.915099 -0.35262 
-1.10528 -5.14131 2.87933 -0.195583 -0.915099 -0.35262 
-1.4426 -4.97636 2.63633 -0.195583 -0.915099 -0.35262 
-0.763993 -5.22762 2.91538 -0.195583 -0.915099 -0.35262 
-1.05497 -5.31262 3.29757 -0.195583 -0.915099 -0.35262 
-0.870012 -5.28208 3.11581 -0.195583 -0.915099 -0.35262 
-1.01573 -5.0739 2.65428 -0.195583 -0.915099 -0.35262 
-0.891599 -5.20733 2.93308 -0.195583 -0.915099 -0.35262 
-0.745843 -5.1792 2.77927 -0.195583 -0.915099 -0.35262 
-1.38957 -4.94787 2.53281 -0.195583 -0.915099 -0.35262 
-0.817154 -5.11865 2.66103 -0.195583 -0.915099 -0.35262 
-1.17011 -5.19127 3.04528 -0.195583 -0.915099 -0.35262 
-1.20479 -5.22331 3.14787 -0.195583 -0.915099 -0.35262 
-1.53933 -4.88802 2.45979 -0.195583 -0.915099 -0.35262 
-0.772531 -5.27182 3.03519 -0.195583 -0.915099 -0.35262 
-0.986522 -5.20136 2.97004 -0.195583 -0.915099 -0.35262 
-0.82952 -5.18881 2.85055 -0.195583 -0.915099 -0.35262 
-1.18898 -5.14894 2.94548 -0.195583 -0.915099 -0.35262 
-1.41981 -5.0161 2.72722 -0.195583 -0.915099 -0.35262 
-1.30254 -5.11769 2.9269 -0.195583 -0.915099 -0.35262 
-0.999815 -5.28182 3.18688 -0.195583 -0.915099 -0.35262 
-1.26971 -5.03671 2.69787 -0.195583 -0.915099 -0.35262 
-1.14503 -5.01389 2.56951 -0.195583 -0.915099 -0.35262 
-0.65135 -5.1707 2.70488 -0.195583 -0.915099 -0.35262 
-1.49813 -4.93584 2.56153 -0.195583 -0.915099 -0.35262 
-1.13376 -5.10102 2.79016 -0.195583 -0.915099 -0.35262 
-1.25585 -5.09028 2.8297 -0.195583 -0.915099 -0.35262 
-0.94921 -5.37018 3.389 -0.195583 -0.915099 -0.35262 
-0.918518 -5.15611 2.81461 -0.195583 -0.915099 -0.35262 
-1.46945 -5.24754 3.35729 -0.195583 -0.915099 -0.35262 
-1.57822 -4.97655 2.71181 -0.195583 -0.915099 -0.35262 
-1.63882 -5.06329 2.97117 -0.195583 -0.915099 -0.35262 
-1.70527 -5.11128 3.13289 -0.195583 -0.915099 -0.35262 
-1.47646 -5.13716 3.07376 -0.195583 -0.915099 -0.35262 
-1.66696 -5.18933 3.31492 -0.195583 -0.915099 -0.35262 
-1.32281 -5.28229 3.3667 -0.195583 -0.915099 -0.35262 
-1.17208 -5.32991 3.40736 -0.195583 -0.915099 -0.35262 
-1.43861 -5.18161 3.16858 -0.195583 -0.915099 -0.35262 
-1.43689 -5.0619 2.85591 -0.195583 -0.915099 -0.35262 
-1.27705 -5.162 3.02818 -0.195583 -0.915099 -0.35262 
-1.52352 -5.18884 3.23434 -0.195583 -0.915099 -0.35262 
-1.68508 -4.98398 2.79024 -0.195583 -0.915099 -0.35262 
-1.76118 -5.15898 3.288 -0.195583 -0.915099 -0.35262 
-1.392 -5.23665 3.28612 -0.195583 -0.915099 -0.35262 
-1.36321 -5.16339 3.07944 -0.195583 -0.915099 -0.35262 
-1.76772 -5.05359 3.01719 -0.195583 -0.915099 -0.35262 
-1.85965 -5.13064 3.26865 -0.195583 -0.915099 -0.35262 
-1.31031 -5.22256 3.20425 -0.195583 -0.915099 -0.35262 
-1.20763 -5.28423 3.30806 -0.195583 -0.915099 -0.35262 
-1.59111 -5.02631 2.84849 -0.195583 -0.915099 -0.35262 
-1.51962 -5.09244 2.98117 -0.195583 -0.915099 -0.35262 
-1.59448 -5.12506 3.10751 -0.195583 -0.915099 -0.35262 
-1.3844 -5.12296 2.98587 -0.195583 -0.915099 -0.35262 
-1.6394 -5.15597 3.21282 -0.195583 -0.915099 -0.35262 
-1.73337 -5.0253 2.92453 -0.195583 -0.915099 -0.35262 
-1.08386 -4.31681 3.56417 0.192524 0.916983 0.349395 
-0.66541 -4.36797 3.46601 0.192524 0.916983 0.349395 
-1.09126 -4.37248 3.71321 0.192524 0.916983 0.349395 
-0.484293 -4.27661 3.12796 0.192524 0.916983 0.349395 
-0.676991 -4.41652 3.59883 0.192524 0.916983 0.349395 
-0.894023 -4.30547 3.42967 0.192524 0.916983 0.349395 
-0.684156 -4.26607 3.21104 0.192524 0.916983 0.349395 
-0.820595 -4.27507 3.30992 0.192524 0.916983 0.349395 
-0.848834 -4.39924 3.64885 0.192524 0.916983 0.349395 
-1.19546 -4.26167 3.48228 0.192524 0.916983 0.349395 
-0.990707 -4.3717 3.65559 0.192524 0.916983 0.349395 
-0.963824 -4.33641 3.54883 0.192524 0.916983 0.349395 
-1.017 -4.28306 3.43932 0.192524 0.916983 0.349395 
-0.923903 -4.26332 3.33642 0.192524 0.916983 0.349395 
-1.04624 -4.42022 3.81263 0.192524 0.916983 0.349395 
-0.936634 -4.42857 3.77378 0.192524 0.916983 0.349395 
-1.42085 -4.26386 3.61261 0.192524 0.916983 0.349395 
-0.75638 -4.44133 3.70732 0.192524 0.916983 0.349395 
-0.780203 -4.35956 3.50758 0.192524 0.916983 0.349395 
-0.542974 -4.29995 3.22119 0.192524 0.916983 0.349395 
-1.21752 -4.32319 3.65467 0.192524 0.916983 0.349395 
-1.31666 -4.33306 3.73518 0.192524 0.916983 0.349395 
-0.663164 -4.31166 3.31815 0.192524 0.916983 0.349395 
-1.33039 -4.24634 3.51696 0.192524 0.916983 0.349395 
-1.42056 -4.30684 3.72436 0.192524 0.916983 0.349395 
-0.762232 -4.4859 3.82663 0.192524 0.916983 0.349395 
-0.788486 -4.31794 3.40378 0.192524 0.916983 0.349395 
-0.570981 -4.34968 3.36618 0.192524 0.916983 0.349395 
-1.52426 -4.24693 3.6257 0.192524 0.916983 0.349395 
-0.862243 -4.46841 3.83637 0.192524 0.916983 0.349395 
-1.27419 -4.16957 3.28602 0.192524 0.916983 0.349395 
-1.4131 -4.09635 3.17214 0.192524 0.916983 0.349395 
-1.15331 -4.17985 3.24592 0.192524 0.916983 0.349395 
-1.28225 -4.20467 3.38186 0.192524 0.916983 0.349395 
-0.854937 -4.13622 2.96734 0.192524 0.916983 0.349395 
-1.11913 -4.23486 3.37027 0.192524 0.916983 0.349395 
-1.01866 -4.14904 3.09125 0.192524 0.916983 0.349395 
-0.690919 -4.2288 3.11773 0.192524 0.916983 0.349395 
-1.01253 -4.10806 2.98116 0.192524 0.916983 0.349395 
-1.62622 -4.21307 3.59392 0.192524 0.916983 0.349395 
-0.869403 -4.19213 3.12094 0.192524 0.916983 0.349395 
-1.34454 -3.978 2.82606 0.192524 0.916983 0.349395 
-1.17215 -4.12935 3.12484 0.192524 0.916983 0.349395 
-0.956339 -4.22063 3.2432 0.192524 0.916983 0.349395 
-1.31686 -4.02308 2.92815 0.192524 0.916983 0.349395 
-1.50594 -4.196 3.48296 0.192524 0.916983 0.349395 
-0.813501 -4.23796 3.20937 0.192524 0.916983 0.349395 
-1.40497 -4.20695 3.45563 0.192524 0.916983 0.349395 
-1.20981 -4.07459 3.0031 0.192524 0.916983 0.349395 
-1.41669 -4.04663 3.04468 0.192524 0.916983 0.349395 
-1.18279 -4.04213 2.90362 0.192524 0.916983 0.349395 
-0.700705 -4.18726 3.01497 0.192524 0.916983 0.349395 
-1.51095 -4.11214 3.26738 0.192524 0.916983 0.349395 
-1.28849 -4.08723 3.07949 0.192524 0.916983 0.349395 
-1.05961 -4.17901 3.19195 0.192524 0.916983 0.349395 
-0.577364 -4.22024 3.03265 0.192524 0.916983 0.349395 
-1.45282 -4.15281 3.34112 0.192524 0.916983 0.349395 
-1.60381 -4.17044 3.47051 0.192524 0.916983 0.349395 
-1.5546 -4.13671 3.35549 0.192524 0.916983 0.349395 
-0.590315 -4.25514 3.1307 0.192524 0.916983 0.349395 
-1.27961 -4.1287 3.18258 0.192524 0.916983 0.349395 
-1.11044 -4.10097 3.01683 0.192524 0.916983 0.349395 
-0.541674 -4.39125 3.26235 0.922356 -0.291195 0.253899 
-0.724982 -4.62804 3.65497 0.922356 -0.291195 0.253899 
-0.677411 -4.67909 3.42304 0.922356 -0.291195 0.253899 
-0.769344 -4.84269 3.56811 0.922356 -0.291195 0.253899 
-0.637065 -4.57752 3.39378 0.922356 -0.291195 0.253899 
-0.63475 -4.67355 3.27437 0.922356 -0.291195 0.253899 
-0.579023 -4.47947 3.29614 0.922356 -0.291195 0.253899 
-0.848967 -4.96695 3.71391 0.922356 -0.291195 0.253899 
-0.783124 -4.99425 3.44301 0.922356 -0.291195 0.253899 
-0.721914 -4.78117 3.46682 0.922356 -0.291195 0.253899 
-0.68757 -4.58534 3.56833 0.922356 -0.291195 0.253899 
-0.788455 -4.71941 3.78008 0.922356 -0.291195 0.253899 
-0.795108 -4.81927 3.68883 0.922356 -0.291195 0.253899 
-0.69239 -4.51879 3.66278 0.922356 -0.291195 0.253899 
-0.849067 -5.04519 3.62384 0.922356 -0.291195 0.253899 
-0.809763 -4.97579 3.56118 0.922356 -0.291195 0.253899 
-0.603446 -4.44421 3.42568 0.922356 -0.291195 0.253899 
-0.832556 -5.1063 3.49318 0.922356 -0.291195 0.253899 
-0.674613 -4.7532 3.3272 0.922356 -0.291195 0.253899 
-0.891637 -5.19989 3.59976 0.922356 -0.291195 0.253899 
-0.555149 -4.49751 3.18851 0.922356 -0.291195 0.253899 
-0.728096 -4.69971 3.58345 0.922356 -0.291195 0.253899 
-0.743152 -4.92 3.38353 0.922356 -0.291195 0.253899 
-0.746998 -4.59133 3.77743 0.922356 -0.291195 0.253899 
-0.649318 -4.52712 3.49659 0.922356 -0.291195 0.253899 
-0.509669 -4.37661 3.16293 0.922356 -0.291195 0.253899 
-0.615102 -4.94474 2.88948 0.922356 -0.291195 0.253899 
-0.507417 -4.45937 3.05908 0.922356 -0.291195 0.253899 
-0.709105 -5.03053 3.13201 0.922356 -0.291195 0.253899 
-0.594717 -4.69562 3.10333 0.922356 -0.291195 0.253899 
-0.572994 -4.72817 2.98675 0.922356 -0.291195 0.253899 
-0.635859 -4.76712 3.17024 0.922356 -0.291195 0.253899 
-0.672829 -5.07333 2.95068 0.922356 -0.291195 0.253899 
-0.636024 -5.06795 2.82311 0.922356 -0.291195 0.253899 
-0.796982 -5.20631 3.24826 0.922356 -0.291195 0.253899 
-0.745897 -5.04391 3.25028 0.922356 -0.291195 0.253899 
-0.570248 -4.82927 2.85991 0.922356 -0.291195 0.253899 
-0.56615 -4.59492 3.11589 0.922356 -0.291195 0.253899 
-0.680644 -4.86084 3.22471 0.922356 -0.291195 0.253899 
-0.63747 -4.84055 3.09121 0.922356 -0.291195 0.253899 
-0.814132 -5.16333 3.36028 0.922356 -0.291195 0.253899 
-0.734819 -5.17664 3.0566 0.922356 -0.291195 0.253899 
-0.88134 -5.26838 3.48316 0.922356 -0.291195 0.253899 
-0.610188 -4.86388 2.96508 0.922356 -0.291195 0.253899 
-0.514045 -4.55609 2.97137 0.922356 -0.291195 0.253899 
-0.540577 -4.71021 2.88967 0.922356 -0.291195 0.253899 
-0.673107 -4.99192 3.04579 0.922356 -0.291195 0.253899 
-0.77629 -5.22808 3.14788 0.922356 -0.291195 0.253899 
-0.677102 -5.1477 2.88025 0.922356 -0.291195 0.253899 
-0.816399 -5.30573 3.20392 0.922356 -0.291195 0.253899 
-0.783036 -5.06343 3.36272 0.922356 -0.291195 0.253899 
-0.593967 -4.59799 3.21346 0.922356 -0.291195 0.253899 
-0.755853 -5.13342 3.18302 0.922356 -0.291195 0.253899 
-0.468596 -4.36932 3.02205 0.922356 -0.291195 0.253899 
-1.83289 -5.01677 3.28961 -0.921149 0.294595 -0.254358 
-1.72815 -4.78208 3.18017 -0.921149 0.294595 -0.254358 
-1.77441 -4.88634 3.22781 -0.921149 0.294595 -0.254358 
-1.70864 -4.80517 3.08255 -0.921149 0.294595 -0.254358 
-1.74878 -4.7599 3.2808 -0.921149 0.294595 -0.254358 
-1.74659 -4.88908 3.12351 -0.921149 0.294595 -0.254358 
-1.79568 -4.97976 3.19713 -0.921149 0.294595 -0.254358 
-1.6029 -4.90638 2.5812 -0.921149 0.294595 -0.254358 
-1.6274 -4.88332 2.69689 -0.921149 0.294595 -0.254358 
-1.73306 -4.94416 3.01067 -0.921149 0.294595 -0.254358 
-1.66181 -4.8472 2.86375 -0.921149 0.294595 -0.254358 
-1.81676 -5.07639 3.16205 -0.921149 0.294595 -0.254358 
-1.67248 -4.79991 2.9572 -0.921149 0.294595 -0.254358 
-1.701 -4.92351 2.918 -0.921149 0.294595 -0.254358 
-1.60901 -4.69092 2.85246 -0.921149 0.294595 -0.254358 
-1.59284 -4.76553 2.70742 -0.921149 0.294595 -0.254358 
-1.70779 -4.44411 3.4968 -0.921149 0.294595 -0.254358 
-1.71003 -4.59117 3.33496 -0.921149 0.294595 -0.254358 
-1.70421 -4.50874 3.40909 -0.921149 0.294595 -0.254358 
-1.69407 -4.35279 3.5525 -0.921149 0.294595 -0.254358 
-1.66986 -4.47784 3.31995 -0.921149 0.294595 -0.254358 
-1.82646 -4.90655 3.39365 -0.921149 0.294595 -0.254358 
-1.76914 -4.70529 3.41791 -0.921149 0.294595 -0.254358 
-1.78767 -4.82573 3.34608 -0.921149 0.294595 -0.254358 
-1.76834 -4.61125 3.5237 -0.921149 0.294595 -0.254358 
-1.66642 -4.4009 3.39638 -0.921149 0.294595 -0.254358 
-1.5648 -4.78016 2.58861 -0.921149 0.294595 -0.254358 
-1.57235 -4.59603 2.8289 -0.921149 0.294595 -0.254358 
-1.62578 -4.34284 3.31577 -0.921149 0.294595 -0.254358 
-1.65083 -4.30654 3.44879 -0.921149 0.294595 -0.254358 
-1.55489 -4.67978 2.6686 -0.921149 0.294595 -0.254358 
-1.56667 -4.30863 3.14044 -0.921149 0.294595 -0.254358 
-1.52335 -4.20506 3.10268 -0.921149 0.294595 -0.254358 
-1.57359 -4.21686 3.27167 -0.921149 0.294595 -0.254358 
-1.4734 -4.13235 3.00517 -0.921149 0.294595 -0.254358 
-1.43141 -4.0523 2.94507 -0.921149 0.294595 -0.254358 
-1.53309 -4.30726 3.01995 -0.921149 0.294595 -0.254358 
-1.48759 -4.22022 2.95518 -0.921149 0.294595 -0.254358 
-1.44147 -4.14723 2.8719 -0.921149 0.294595 -0.254358 
-1.53071 -4.37175 2.93678 -0.921149 0.294595 -0.254358 
-1.49008 -4.29976 2.8723 -0.921149 0.294595 -0.254358 
-1.5361 -4.46285 2.85104 -0.921149 0.294595 -0.254358 
-1.49457 -4.50384 2.6527 -0.921149 0.294595 -0.254358 
-1.51473 -4.61417 2.59847 -0.921149 0.294595 -0.254358 
-1.46364 -4.401 2.65915 -0.921149 0.294595 -0.254358 
-1.41478 -4.19632 2.71815 -0.921149 0.294595 -0.254358 
-1.46059 -4.29363 2.77217 -0.921149 0.294595 -0.254358 
-1.5298 -4.5329 2.74718 -0.921149 0.294595 -0.254358 
-1.49413 -4.40322 2.76742 -0.921149 0.294595 -0.254358 
-1.39389 -4.07916 2.77765 -0.921149 0.294595 -0.254358 
-0.612274 -4.94066 2.78809 0.334759 0.275771 -0.901048 
-0.810372 -4.80337 2.75626 0.334759 0.275771 -0.901048 
-0.646057 -4.52491 2.90234 0.334759 0.275771 -0.901048 
-0.573041 -4.41624 2.96265 0.334759 0.275771 -0.901048 
-0.755505 -4.33818 2.91857 0.334759 0.275771 -0.901048 
-0.820768 -4.61543 2.80972 0.334759 0.275771 -0.901048 
-0.712925 -5.00739 2.73028 0.334759 0.275771 -0.901048 
-0.945919 -4.57528 2.7754 0.334759 0.275771 -0.901048 
-1.25556 -4.07586 2.81251 0.334759 0.275771 -0.901048 
-1.09786 -4.28305 2.80799 0.334759 0.275771 -0.901048 
-0.851096 -4.43506 2.85345 0.334759 0.275771 -0.901048 
-0.718663 -4.8952 2.76237 0.334759 0.275771 -0.901048 
-0.982015 -4.48181 2.79047 0.334759 0.275771 -0.901048 
-1.00107 -4.31712 2.83362 0.334759 0.275771 -0.901048 
-1.07634 -4.38337 2.7854 0.334759 0.275771 -0.901048 
-1.15207 -4.15921 2.8256 0.334759 0.275771 -0.901048 
-0.88252 -4.23831 2.90177 0.334759 0.275771 -0.901048 
-0.768611 -4.52522 2.85664 0.334759 0.275771 -0.901048 
-0.72055 -4.72947 2.81222 0.334759 0.275771 -0.901048 
-1.04541 -4.12144 2.87681 0.334759 0.275771 -0.901048 
-0.686578 -4.6104 2.86118 0.334759 0.275771 -0.901048 
-0.641441 -4.27993 2.97878 0.334759 0.275771 -0.901048 
-0.896711 -4.67954 2.7619 0.334759 0.275771 -0.901048 
-0.583932 -4.60429 2.90124 0.334759 0.275771 -0.901048 
-0.67434 -4.39652 2.93098 0.334759 0.275771 -0.901048 
-0.907465 -4.95661 2.67339 0.334759 0.275771 -0.901048 
-1.2376 -4.38702 2.72428 0.334759 0.275771 -0.901048 
-1.12465 -4.51777 2.72643 0.334759 0.275771 -0.901048 
-1.28585 -4.75356 2.59453 0.334759 0.275771 -0.901048 
-1.19288 -4.70279 2.64461 0.334759 0.275771 -0.901048 
-0.941854 -4.79199 2.7108 0.334759 0.275771 -0.901048 
-1.03194 -4.7047 2.70391 0.334759 0.275771 -0.901048 
-1.37582 -4.58129 2.6136 0.334759 0.275771 -0.901048 
-1.11716 -4.76884 2.65263 0.334759 0.275771 -0.901048 
-1.27042 -4.61858 2.64144 0.334759 0.275771 -0.901048 
-1.21305 -4.28913 2.76328 0.334759 0.275771 -0.901048 
-1.45075 -4.80067 2.5188 0.334759 0.275771 -0.901048 
-1.35282 -4.48748 2.65077 0.334759 0.275771 -0.901048 
-1.17691 -4.83718 2.60955 0.334759 0.275771 -0.901048 
-1.45716 -4.69087 2.5499 0.334759 0.275771 -0.901048 
-1.23634 -4.9381 2.55666 0.334759 0.275771 -0.901048 
-1.0687 -4.92739 2.62231 0.334759 0.275771 -0.901048 
-1.22551 -4.52123 2.68785 0.334759 0.275771 -0.901048 
-1.32593 -4.26285 2.72929 0.334759 0.275771 -0.901048 
-1.35463 -4.81584 2.54993 0.334759 0.275771 -0.901048 
-1.3902 -4.32651 2.68596 0.334759 0.275771 -0.901048 
-1.24058 -4.19023 2.7832 0.334759 0.275771 -0.901048 
-1.1121 -4.61629 2.70105 0.334759 0.275771 -0.901048 
-0.803459 -4.95712 2.71193 0.334759 0.275771 -0.901048 
-0.983965 -4.87473 2.6699 0.334759 0.275771 -0.901048 
-2.01762 -4.19157 3.04316 0.200669 0.920802 0.334449 
-1.88378 -4.23344 3.07808 0.200669 0.920802 0.334449 
-2.20825 -4.13217 2.99409 0.200669 0.920802 0.334449 
-2.32464 -4.09562 2.96335 0.200669 0.920802 0.334449 
-2.51152 -4.03499 2.90862 0.200145 0.921233 0.333574 
-1.73427 -4.27947 3.1149 0.212646 0.930854 0.297141 
-2.41228 -4.05553 2.8978 0.250091 0.950345 0.185202 
-2.10763 -4.14997 2.96817 0.262034 0.953698 0.147644 
-2.55217 -4.0055 2.81195 0.294206 0.95523 0.0312985 
-1.91994 -4.20658 2.98688 0.294206 0.95523 0.0312985 
-1.77957 -4.25111 3.01749 0.304368 0.952535 -0.00616129 
-2.31566 -4.0809 2.85924 0.312846 0.948752 -0.0446922 
-2.01685 -4.17698 2.92672 0.322303 0.943229 -0.0802468 
-1.64981 -4.29362 3.02856 0.322303 0.943229 -0.0802468 
-2.45353 -4.04055 2.78946 0.337903 0.927496 -0.159913 
-2.15105 -4.13662 2.87334 0.337903 0.927496 -0.159913 
-1.82766 -4.24762 2.92905 0.358161 0.893172 -0.271964 
-2.23418 -4.12369 2.80254 0.367707 0.863111 -0.346167 
-2.55026 -4.02539 2.71011 0.372792 0.846972 -0.379032 
-2.36742 -4.08923 2.74817 0.375262 0.828109 -0.41643 
-1.95776 -4.22087 2.85812 0.375262 0.828109 -0.41643 
-1.72378 -4.29671 2.91969 0.378448 0.809591 -0.448708 
-2.09137 -4.1932 2.7965 0.385226 0.765576 -0.515261 
-1.64079 -4.35664 2.89497 0.387161 0.690301 -0.611221 
-2.43923 -4.10036 2.67802 0.387161 0.690301 -0.611221 
-1.86102 -4.28963 2.83119 0.384892 0.665714 -0.639284 
-2.25325 -4.17415 2.71408 0.384046 0.637879 -0.667547 
-2.5398 -4.09197 2.62724 0.38425 0.608534 -0.69429 
-2.02097 -4.272 2.75827 0.377506 0.547465 -0.746841 
-2.36673 -4.17164 2.65662 0.374991 0.514597 -0.771085 
-1.77947 -4.36513 2.81404 0.371322 0.483843 -0.792474 
-2.11921 -4.26745 2.71472 0.364989 0.451056 -0.814451 
-1.6718 -4.42665 2.8297 0.355963 0.380834 -0.853379 
-1.87506 -4.37014 2.77045 0.347459 0.347459 -0.870944 
-2.486 -4.19567 2.59561 0.334759 0.275771 -0.901048 
-1.97408 -4.36093 2.73569 0.334759 0.275771 -0.901048 
-2.27008 -4.25944 2.6565 0.334759 0.275771 -0.901048 
-1.79787 -4.4561 2.77641 0.299126 0.12743 -0.945667 
-2.38074 -4.26543 2.61677 0.299126 0.12743 -0.945667 
-2.18691 -4.33033 2.66966 0.299126 0.12743 -0.945667 
-2.08871 -4.39515 2.69462 0.268434 0.013361 -0.963205 
-1.69544 -4.52659 2.80295 0.257063 -0.0231478 -0.966118 
-2.57607 -4.24683 2.56069 0.257063 -0.0231478 -0.966118 
-1.92982 -4.46106 2.73888 0.245267 -0.0634956 -0.967374 
-2.47639 -4.29565 2.58916 0.232626 -0.100423 -0.967368 
-2.28794 -4.37355 2.64327 0.218539 -0.138365 -0.965969 
-1.8689 -4.54221 2.76673 0.165174 -0.288031 -0.943268 
-2.39429 -4.37827 2.62315 0.165174 -0.288031 -0.943268 
-2.19868 -4.44636 2.67887 0.152674 -0.323228 -0.933924 
-2.03361 -4.50424 2.72614 0.152674 -0.323228 -0.933924 
-1.77754 -4.60329 2.8036 0.124088 -0.394574 -0.910447 
-2.58551 -4.3671 2.59136 0.093969 -0.46143 -0.882186 
-2.13968 -4.53685 2.73105 0.0490239 -0.558872 -0.827803 
-1.71405 -4.67037 2.84691 0.0490239 -0.558872 -0.827803 
-2.36068 -4.47613 2.6771 0.0349009 -0.58773 -0.808304 
-2.46319 -4.44836 2.65264 0.0180727 -0.618641 -0.785466 
-1.95694 -4.61188 2.79389 0.0180727 -0.618641 -0.785466 
-2.25989 -4.51821 2.71268 0.00414471 -0.645193 -0.764008 
-2.07677 -4.59694 2.78158 -0.0267521 -0.699779 -0.713859 
-1.83043 -4.67985 2.85396 -0.044045 -0.726032 -0.686249 
-2.65673 -4.43464 2.64655 -0.0734938 -0.770965 -0.632623 
-2.21994 -4.58304 2.77916 -0.103348 -0.813681 -0.572051 
-1.75969 -4.7381 2.91864 -0.117834 -0.833565 -0.539708 
-2.56828 -4.48024 2.69505 -0.117834 -0.833565 -0.539708 
-2.3609 -4.54629 2.75227 -0.117834 -0.833565 -0.539708 
-2.02783 -4.65755 2.85248 -0.132413 -0.851224 -0.507824 
-2.463 -4.52429 2.7417 -0.146975 -0.868751 -0.472938 
-1.90597 -4.71191 2.91604 -0.174334 -0.897606 -0.404859 
-2.13221 -4.64909 2.87688 -0.200669 -0.920802 -0.334449 
-2.29209 -4.60256 2.84677 -0.227253 -0.938288 -0.260713 
-2.68411 -4.47942 2.74442 -0.227253 -0.938288 -0.260713 
-1.77702 -4.77209 3.01292 -0.253272 -0.949433 -0.185553 
-2.56877 -4.52005 2.79372 -0.253272 -0.949433 -0.185553 
-2.02738 -4.69419 2.95438 -0.265181 -0.952786 -0.147915 
-2.4847 -4.55012 2.8394 -0.275688 -0.95511 -0.108446 
-2.38244 -4.58396 2.88918 -0.2972 -0.9543 -0.0313502 
-2.23665 -4.63036 2.93128 -0.305084 -0.952305 0.00617578 
-1.87106 -4.74645 3.04345 -0.315147 -0.947992 0.0446564 
-2.1197 -4.66692 2.98421 -0.322303 -0.943229 0.0802468 
-2.66245 -4.49256 2.85147 -0.332582 -0.935303 0.120816 
-1.97375 -4.71061 3.04713 -0.341242 -0.926228 0.160175 
-2.55093 -4.52178 2.91266 -0.354222 -0.905233 0.23469 
-2.32034 -4.5942 2.97933 -0.358449 -0.893891 0.269208 
-2.46165 -4.54045 2.96565 -0.371742 -0.862257 0.343977 
-2.20291 -4.61805 3.04743 -0.373779 -0.846086 0.380035 
-2.73809 -4.44415 2.90765 -0.378474 -0.828209 0.413313 
-2.08886 -4.65322 3.08102 -0.378474 -0.828209 0.413313 
-1.88513 -4.71742 3.13824 -0.378474 -0.828209 0.413313 
-2.62466 -4.46994 2.95675 -0.38584 -0.786209 0.482703 
-1.9773 -4.65909 3.15782 -0.390367 -0.716497 0.578139 
-2.39789 -4.51057 3.05841 -0.387701 -0.664865 0.638469 
-2.28559 -4.55239 3.08295 -0.387701 -0.664865 0.638469 
-1.80782 -4.69435 3.22445 -0.387701 -0.638469 0.664865 
-2.68761 -4.39621 2.99826 -0.382214 -0.579063 0.720138 
-2.17347 -4.56681 3.13401 -0.382214 -0.579063 0.720138 
-2.5685 -4.43208 3.03254 -0.380303 -0.546788 0.745917 
-2.05793 -4.59155 3.17512 -0.380303 -0.546788 0.745917 
-2.46301 -4.43003 3.08372 -0.364165 -0.414613 0.833954 
-1.92242 -4.59657 3.23511 -0.364165 -0.414613 0.833954 
-2.26608 -4.46665 3.14919 -0.344366 -0.311283 0.885728 
-2.37087 -4.41607 3.12598 -0.33503 -0.273042 0.901778 
-2.11359 -4.5012 3.19575 -0.33503 -0.273042 0.901778 
-1.80096 -4.59851 3.28239 -0.33503 -0.273042 0.901778 
-2.71785 -4.29864 3.03238 -0.327837 -0.238295 0.914187 
-2.58942 -4.32776 3.07039 -0.320705 -0.20203 0.925382 
-2.00632 -4.51861 3.22962 -0.320705 -0.20203 0.925382 
-2.44762 -4.33563 3.11404 -0.280871 -0.0491209 0.958488 
-1.8687 -4.50677 3.27367 -0.27132 -0.0133835 0.962396 
-2.18826 -4.41306 3.18565 -0.27132 -0.0133835 0.962396 
-2.05567 -4.41643 3.2205 -0.235607 0.100611 0.966626 
-2.30149 -4.33426 3.15241 -0.221472 0.141172 0.964894 
-1.95826 -4.42569 3.24394 -0.209162 0.177591 0.96162 
-2.59223 -4.22479 3.06967 -0.209162 0.177591 0.96162 
-2.67786 -4.1756 3.04094 -0.182589 0.250215 0.950817 
-1.78585 -4.45121 3.28393 -0.168261 0.288643 0.942536 
-2.42689 -4.23415 3.10315 -0.155759 0.323923 0.933174 
-2.19498 -4.29173 3.16041 -0.127155 0.395438 0.909648 
-2.30501 -4.22958 3.11651 -0.0830322 0.493971 0.865505 
-2.50083 -4.15966 3.05814 -0.0689431 0.524812 0.848422 
-2.04318 -4.30607 3.18459 -0.0689431 0.524812 0.848422 
-1.83005 -4.36258 3.23602 -0.0519383 0.560091 0.826801 
-1.94324 -4.31105 3.19375 -0.0208519 0.618608 0.785423 
-2.59073 -4.10073 3.01215 -0.0208519 0.618608 0.785423 
-2.09463 -4.23662 3.12929 0.0266994 0.701211 0.712453 
-1.70428 -4.35244 3.22823 0.0411281 0.724705 0.687831 
-2.20142 -4.19788 3.09519 0.0411281 0.724705 0.687831 
-2.34773 -4.14573 3.049 0.0411281 0.724705 0.687831 
-1.84723 -4.28736 3.16586 0.085417 0.794812 0.600814 
-2.42189 -4.09887 2.99999 0.100229 0.814902 0.570867 
-1.97335 -4.24112 3.12284 0.100229 0.814902 0.570867 
-2.62122 -4.01192 2.88855 -0.0949913 0.953817 0.284974 
-2.68413 -4.06725 2.96496 -0.254359 0.744119 0.617729 
-2.7204 -4.01526 2.86493 -0.111923 0.93719 0.330376 
-2.81576 -4.01102 2.82051 -0.111923 0.93719 0.330376 
-2.7823 -4.07874 2.93457 -0.315389 0.625926 0.713265 
-2.77554 -4.18822 2.9949 -0.485959 0.20311 0.850053 
-2.91629 -4.03993 2.83711 -0.253762 0.745524 0.616279 
-2.88425 -4.12164 2.91353 -0.436839 0.351679 0.827945 
-2.79039 -4.33576 2.96308 -0.629146 -0.384753 0.675382 
-2.86184 -4.22502 2.94279 -0.575362 -0.10342 0.811334 
-2.87476 -4.31925 2.88799 -0.641677 -0.547362 0.537257 
-2.81018 -4.40803 2.83794 -0.612661 -0.770767 0.174829 
-2.95196 -4.21462 2.87806 -0.605541 -0.246935 0.756533 
-2.78954 -4.41851 2.73512 -0.515776 -0.823702 -0.235563 
-2.90358 -4.34515 2.78638 -0.604182 -0.787357 0.122609 
-2.74455 -4.37387 2.6296 -0.32944 -0.637783 -0.696206 
-2.86032 -4.34508 2.66715 -0.430565 -0.76454 -0.479679 
-2.95629 -4.30217 2.69433 -0.512807 -0.819562 -0.255629 
-2.67154 -4.28839 2.56904 -0.127824 -0.231117 -0.964493 
-2.79602 -4.28106 2.58711 -0.184863 -0.371158 -0.909982 
-2.63829 -4.16083 2.57524 0.0423123 0.324394 -0.944975 
-2.90906 -4.23313 2.59102 -0.20254 -0.39488 -0.896129 
-2.75613 -4.16329 2.57105 0.00567917 0.173783 -0.984768 
-2.63765 -4.06606 2.63502 0.0983955 0.721078 -0.685832 
-2.85344 -4.10493 2.58481 0.0541554 0.373804 -0.925925 
-2.74468 -4.04857 2.63846 0.0983065 0.758574 -0.644128 
-2.68919 -4.0098 2.72031 0.0593297 0.960636 -0.271402 
-2.7914 -4.00448 2.71751 0.0499292 0.973011 -0.225291 
-2.91259 -4.11719 2.73357 -0.921149 0.294595 -0.254358 
-2.92786 -4.20634 2.68602 -0.921149 0.294595 -0.254358 
